<?xml version="1.0" encoding="UTF-8"?>
<svg width="67px" height="67px" viewBox="0 0 67 67" version="1.1" xmlns="http://www.w3.org/2000/svg" xmlns:xlink="http://www.w3.org/1999/xlink">
    <!-- Generator: Sketch 51.3 (57544) - http://www.bohemiancoding.com/sketch -->
    <title>Group 4</title>
    <desc>Created with Sketch.</desc>
    <defs></defs>
    <g id="Page-1" stroke="none" stroke-width="1" fill="none" fill-rule="evenodd">
        <g id="Desktop-HD" transform="translate(-691.000000, -733.000000)" fill="#000000">
            <g id="Group-4" transform="translate(691.000000, 733.000000)">
                <polygon id="Fill-1" points="24 46 31 46 31 20 24 20"></polygon>
                <polygon id="Fill-2" points="37 46 44 46 44 20 37 20"></polygon>
                <path d="M33.44774,0 C51.98262,0 67,15.02006 67,33.44774 C67,51.98262 51.97994,67 33.44774,67 C15.02006,67 0,51.97994 0,33.44774 C0,15.02006 15.02006,0 33.44774,0 Z M33.44774,6.603185 C48.3606,6.603185 60.39715,18.639735 60.39715,33.444725 C60.39715,48.357585 48.3606,60.394135 33.44774,60.394135 C18.64208,60.394135 6.60620067,48.357585 6.60620067,33.444725 C6.60620067,18.639065 18.64275,6.603185 33.44774,6.603185 Z" id="Fill-3"></path>
            </g>
        </g>
    </g>
</svg>