<?xml version="1.0" encoding="UTF-8"?>
<svg width="67px" height="67px" viewBox="0 0 67 67" version="1.1" xmlns="http://www.w3.org/2000/svg" xmlns:xlink="http://www.w3.org/1999/xlink">
    <!-- Generator: Sketch 51.3 (57544) - http://www.bohemiancoding.com/sketch -->
    <title>Group 3</title>
    <desc>Created with Sketch.</desc>
    <defs></defs>
    <g id="Page-1" stroke="none" stroke-width="1" fill="none" fill-rule="evenodd">
        <g id="Desktop-HD-Copy" transform="translate(-691.000000, -733.000000)" fill="#000000">
            <g id="Group-3" transform="translate(691.000000, 733.000000)">
                <path d="M33.5,0.508590909 C15.2775227,0.508590909 0.508590148,15.2775227 0.508590148,33.5 C0.508590148,51.7224773 15.2775227,66.4914106 33.5,66.4914106 C51.7224773,66.4914106 66.4914091,51.7224773 66.4914091,33.5 C66.4914091,15.2775227 51.7224773,0.508590909 33.5,0.508590909 Z M33.5,61.4176818 C18.1090341,61.4176818 5.58231818,48.8940114 5.58231818,33.5 C5.58231818,18.1090341 18.1090341,5.58231818 33.5,5.58231818 C48.8909659,5.58231818 61.4176818,18.1059886 61.4176818,33.5 C61.4176818,48.8909659 48.8909659,61.4176818 33.5,61.4176818 Z" id="Fill-1"></path>
                <polygon id="Fill-2" points="51.2641364 33.5 23.3495 18.2727273 23.3495 48.7272727"></polygon>
            </g>
        </g>
    </g>
</svg>