<?xml version="1.0" encoding="UTF-8"?>
<svg width="285px" height="285px" viewBox="0 0 285 285" version="1.1" xmlns="http://www.w3.org/2000/svg" xmlns:xlink="http://www.w3.org/1999/xlink">
    <!-- Generator: Sketch 51.3 (57544) - http://www.bohemiancoding.com/sketch -->
    <title>Front</title>
    <desc>Created with Sketch.</desc>
    <defs>
        <linearGradient x1="50%" y1="0%" x2="50%" y2="100%" id="linearGradient-1">
            <stop stop-color="#95C5FC" offset="0%"></stop>
            <stop stop-color="#5C9EEA" offset="100%"></stop>
        </linearGradient>
        <linearGradient x1="50%" y1="0%" x2="83.4086564%" y2="135.055111%" id="linearGradient-2">
            <stop stop-color="#1B5392" offset="0%"></stop>
            <stop stop-color="#0B3769" offset="100%"></stop>
        </linearGradient>
        <linearGradient x1="73.3572664%" y1="46.5087034%" x2="0%" y2="50%" id="linearGradient-3">
            <stop stop-color="#4990E2" offset="0%"></stop>
            <stop stop-color="#81B8F8" offset="100%"></stop>
        </linearGradient>
        <linearGradient x1="0%" y1="13.901368%" x2="100%" y2="35.912274%" id="linearGradient-4">
            <stop stop-color="#404040" offset="0%"></stop>
            <stop stop-color="#000000" offset="100%"></stop>
        </linearGradient>
        <linearGradient x1="10.2160219%" y1="85.6110592%" x2="100%" y2="60.5624738%" id="linearGradient-5">
            <stop stop-color="#484848" offset="0%"></stop>
            <stop stop-color="#000000" offset="100%"></stop>
        </linearGradient>
        <linearGradient x1="0%" y1="0%" x2="98.3409865%" y2="50%" id="linearGradient-6">
            <stop stop-color="#313131" offset="0%"></stop>
            <stop stop-color="#000000" offset="100%"></stop>
        </linearGradient>
    </defs>
    <g id="Cards" stroke="none" stroke-width="1" fill="none" fill-rule="evenodd">
        <g id="Front" transform="translate(-258.000000, -108.000000)">
            <g id="Group-4" transform="translate(258.000000, 108.000000)">
                <g id="Group" transform="translate(3.000000, 90.000000)">
                    <path d="M129.533953,52.0502326 L144.468372,29.1637209 C145.071786,29.0775189 145.664416,29.0128684 146.246279,28.9697674 C146.828142,28.9266665 147.356122,28.9051163 147.830233,28.9051163 C148.390545,28.9051163 148.99395,28.9266665 149.640465,28.9697674 C150.28698,29.0128684 150.955035,29.0775189 151.644651,29.1637209 L136.904186,51.4683721 L153.519535,75.647907 C152.829919,75.734109 152.151089,75.7987595 151.483023,75.8418605 C150.814958,75.8849615 150.179228,75.9065116 149.575814,75.9065116 C149.058602,75.9065116 148.498298,75.8849615 147.894884,75.8418605 C147.29147,75.7987595 146.666515,75.734109 146.02,75.647907 L129.533953,52.0502326 Z M121,29.1637209 C121.517212,29.0775189 122.055966,29.0128684 122.616279,28.9697674 C123.176592,28.9266665 123.736896,28.9051163 124.297209,28.9051163 C124.857522,28.9051163 125.417827,28.9266665 125.97814,28.9697674 C126.538452,29.0128684 127.077207,29.0775189 127.594419,29.1637209 L127.594419,75.647907 C127.077207,75.734109 126.538452,75.7987595 125.97814,75.8418605 C125.417827,75.8849615 124.857522,75.9065116 124.297209,75.9065116 C123.693795,75.9065116 123.111941,75.8849615 122.551628,75.8418605 C121.991315,75.7987595 121.474111,75.734109 121,75.647907 L121,29.1637209 Z M163.044806,60.6488372 C163.131008,64.2693204 164.068441,66.9199916 165.857132,68.6009302 C167.645823,70.2818689 170.285719,71.1223256 173.776899,71.1223256 C176.83707,71.1223256 179.746343,70.5835713 182.504806,69.5060465 C182.849614,70.1525614 183.129766,70.9391427 183.345271,71.865814 C183.560776,72.7924853 183.690077,73.7083676 183.733178,74.6134884 C182.310846,75.2169022 180.748458,75.6694559 179.045969,75.9711628 C177.34348,76.2728697 175.45784,76.4237209 173.388992,76.4237209 C170.371923,76.4237209 167.785902,76.0034926 165.630853,75.1630233 C163.475803,74.3225539 161.697914,73.1372945 160.297132,71.6072093 C158.89635,70.0771241 157.872716,68.2669097 157.226202,66.1765116 C156.579687,64.0861136 156.256434,61.7910203 156.256434,59.2911628 C156.256434,56.8344063 156.568912,54.539313 157.193876,52.405814 C157.81884,50.2723149 158.777823,48.4190001 160.070853,46.845814 C161.363882,45.2726278 162.99092,44.0227178 164.952016,43.0960465 C166.913111,42.1693752 169.229754,41.7060465 171.902016,41.7060465 C174.186368,41.7060465 176.190534,42.0939496 177.914574,42.8697674 C179.638613,43.6455853 181.082475,44.7123188 182.246202,46.07 C183.409928,47.4276812 184.293485,49.0439441 184.896899,50.9188372 C185.500313,52.7937303 185.802016,54.8302216 185.802016,57.0283721 C185.802016,57.631786 185.780465,58.267516 185.737364,58.9355814 C185.694263,59.6036468 185.651163,60.1747263 185.608062,60.6488372 L163.044806,60.6488372 Z M179.466202,55.8646512 C179.466202,54.6578234 179.304575,53.5048892 178.981318,52.405814 C178.65806,51.3067387 178.183957,50.347756 177.558992,49.5288372 C176.934028,48.7099184 176.136672,48.0526381 175.166899,47.5569767 C174.197127,47.0613154 173.044193,46.8134884 171.708062,46.8134884 C169.078902,46.8134884 167.06396,47.6108447 165.663178,49.2055814 C164.262396,50.8003181 163.411164,53.0199858 163.109457,55.8646512 L179.466202,55.8646512 Z M195.435039,47.5893023 L190.392248,47.5893023 L190.133643,46.684186 L201.253643,34.2711628 L201.770853,34.2711628 L201.770853,42.4818605 L210.175504,42.4818605 C210.347908,43.2145773 210.434109,44.0334838 210.434109,44.9386047 C210.434109,45.4127155 210.412558,45.8652692 210.369457,46.2962791 C210.326356,46.727289 210.261706,47.1582924 210.175504,47.5893023 L201.770853,47.5893023 L201.770853,62.7176744 C201.770853,64.527916 201.846278,65.9717776 201.997132,67.0493023 C202.147985,68.1268271 202.406587,68.9565087 202.772946,69.5383721 C203.139304,70.1202355 203.634958,70.5081386 204.259922,70.702093 C204.884887,70.8960475 205.671468,70.9930233 206.61969,70.9930233 C207.352407,70.9930233 208.042012,70.9391478 208.688527,70.8313953 C209.335042,70.7236429 209.916897,70.6051169 210.434109,70.475814 C210.735815,71.3378338 210.918992,72.2213908 210.983643,73.1265116 C211.048295,74.0316324 211.08062,74.8289888 211.08062,75.5186047 C210.2186,75.7341096 209.313493,75.8957359 208.365271,76.0034884 C207.41705,76.1112408 206.404191,76.1651163 205.326667,76.1651163 C202.223395,76.1651163 199.799001,75.4108603 198.053411,73.9023256 C196.307821,72.3937909 195.435039,69.8939709 195.435039,66.4027907 L195.435039,47.5893023 Z M218.580155,47.5893023 L213.537364,47.5893023 L213.27876,46.684186 L224.39876,34.2711628 L224.915969,34.2711628 L224.915969,42.4818605 L233.32062,42.4818605 C233.493024,43.2145773 233.579225,44.0334838 233.579225,44.9386047 C233.579225,45.4127155 233.557675,45.8652692 233.514574,46.2962791 C233.471473,46.727289 233.406822,47.1582924 233.32062,47.5893023 L224.915969,47.5893023 L224.915969,62.7176744 C224.915969,64.527916 224.991395,65.9717776 225.142248,67.0493023 C225.293102,68.1268271 225.551704,68.9565087 225.918062,69.5383721 C226.28442,70.1202355 226.780074,70.5081386 227.405039,70.702093 C228.030003,70.8960475 228.816584,70.9930233 229.764806,70.9930233 C230.497523,70.9930233 231.187129,70.9391478 231.833643,70.8313953 C232.480158,70.7236429 233.062013,70.6051169 233.579225,70.475814 C233.880932,71.3378338 234.064108,72.2213908 234.12876,73.1265116 C234.193411,74.0316324 234.225736,74.8289888 234.225736,75.5186047 C233.363717,75.7341096 232.458609,75.8957359 231.510388,76.0034884 C230.562166,76.1112408 229.549308,76.1651163 228.471783,76.1651163 C225.368512,76.1651163 222.944117,75.4108603 221.198527,73.9023256 C219.452937,72.3937909 218.580155,69.8939709 218.580155,66.4027907 L218.580155,47.5893023 Z M240.367597,28.2586047 C240.841708,28.1724027 241.369687,28.1077522 241.95155,28.0646512 C242.533414,28.0215502 243.061393,28 243.535504,28 C244.009615,28 244.537594,28.0215502 245.119457,28.0646512 C245.701321,28.1077522 246.2293,28.1724027 246.703411,28.2586047 L246.703411,65.6269767 C246.703411,66.8338045 246.811162,67.7820121 247.026667,68.4716279 C247.242172,69.1612438 247.533099,69.689223 247.899457,70.0555814 C248.265816,70.4219398 248.696819,70.6589917 249.192481,70.7667442 C249.688142,70.8744967 250.216121,70.9283721 250.776434,70.9283721 C251.164343,70.9283721 251.606122,70.9068219 252.101783,70.8637209 C252.597444,70.8206199 253.017673,70.7559694 253.362481,70.6697674 C253.75039,72.1783021 253.944341,73.8161152 253.944341,75.5832558 C253.340927,75.7987608 252.608221,75.9388369 251.746202,76.0034884 C250.884182,76.0681399 250.086825,76.1004651 249.354109,76.1004651 C248.10418,76.1004651 246.940471,75.9496139 245.862946,75.647907 C244.785421,75.3462 243.837213,74.8505461 243.018295,74.1609302 C242.199376,73.4713144 241.552871,72.544657 241.07876,71.3809302 C240.604649,70.2172035 240.367597,68.773342 240.367597,67.0493023 L240.367597,28.2586047 Z M259.762946,42.4818605 C260.237057,42.3956585 260.68961,42.331008 261.12062,42.287907 C261.55163,42.244806 262.004184,42.2232558 262.478295,42.2232558 C262.952405,42.2232558 263.426509,42.244806 263.90062,42.287907 C264.374731,42.331008 264.805734,42.3956585 265.193643,42.4818605 C265.322946,43.1283753 265.452247,43.9796071 265.58155,45.0355814 C265.710853,46.0915557 265.775504,46.9858878 265.775504,47.7186047 C266.680625,46.253171 267.876659,44.9817108 269.363643,43.904186 C270.850628,42.8266613 272.757818,42.287907 275.085271,42.287907 C275.430079,42.287907 275.785657,42.2986821 276.152016,42.3202326 C276.518374,42.3417831 276.830851,42.3741083 277.089457,42.4172093 C277.175659,42.8051182 277.24031,43.2145715 277.283411,43.6455814 C277.326512,44.0765913 277.348062,44.5291449 277.348062,45.0032558 C277.348062,45.5204677 277.315737,46.059222 277.251085,46.6195349 C277.186434,47.1798478 277.111008,47.7186021 277.024806,48.235814 C276.679998,48.149612 276.32442,48.1065116 275.958062,48.1065116 L275.085271,48.1065116 C273.921545,48.1065116 272.811711,48.2681379 271.755736,48.5913953 C270.699762,48.9146528 269.751555,49.4857323 268.911085,50.3046512 C268.070616,51.12357 267.402561,52.2441789 266.906899,53.6665116 C266.411238,55.0888443 266.163411,56.9206089 266.163411,59.1618605 L266.163411,75.647907 C265.6893,75.734109 265.161321,75.7987595 264.579457,75.8418605 C263.997594,75.8849615 263.469615,75.9065116 262.995504,75.9065116 C262.521393,75.9065116 261.993414,75.8849615 261.41155,75.8418605 C260.829687,75.7987595 260.280158,75.734109 259.762946,75.647907 L259.762946,42.4818605 Z" id="Kettlr" fill="#000000"></path>
                    <g id="Group-2" transform="translate(0.428188, 0.000000)">
                        <polygon id="Path-2" fill="url(#linearGradient-1)" points="0.571812432 47.1499292 16.2659826 72.5590699 16.5825605 49.9875295"></polygon>
                        <polygon id="Path-3" fill="url(#linearGradient-2)" points="0.56909018 47.1488978 16.0107481 49.9875295 20.5852475 47.1488978"></polygon>
                        <path d="M17.0023496,48.249772 C16.4547032,48.3154054 16.007467,48.8237764 16.0035157,49.3719168 L15.6864683,93.3538438 C15.682474,93.9079539 15.9762769,94.6917563 16.4019007,95.0572473 C16.4019007,95.0572473 19.8620585,100.964487 52.6783243,100.128943 C85.4945901,99.2933994 87.8349737,94.2305204 87.8349737,94.2305204 C88.222281,93.8416276 88.4511569,93.0872073 88.3461195,92.545152 L78.5284394,41.8801035 C78.42343,41.338193 77.8898913,40.9526282 77.3467016,41.0177275 L17.0023496,48.249772 Z" id="Path" fill="url(#linearGradient-3)"></path>
                        <path d="M47.170006,47.7036296 C64.3812851,47.7036296 78.3337835,46.5591886 78.3337835,45.1474491 C78.3337835,43.7357096 63.8367376,42.4808924 46.6307956,42.5184065 C29.4248536,42.5559207 16.0062285,43.7357096 16.0062285,45.1474491 C16.0062285,46.5591886 29.9587269,47.7036296 47.170006,47.7036296 Z" id="Oval" fill="#8EBFF9" transform="translate(47.170006, 45.110608) rotate(-7.000000) translate(-47.170006, -45.110608) "></path>
                        <path d="M18.7019747,0.214824727 C17.6292797,-0.0276077345 16.5687826,0.653618591 16.3354092,1.72663452 L15.4312698,5.88373197 C15.1969468,6.96111393 15.8820935,7.99499854 16.9720539,8.19489737 L62.4399606,16.5337153 C66.2389052,17.230442 69.0149532,20.9120511 68.6389964,24.7716121 L67.0957223,40.6148203 C66.9887625,41.7128661 67.7795978,42.4577157 68.8743976,42.2764529 L77.1946783,40.8988878 L78.1465743,16.6672407 C78.2114697,15.0152508 76.9510172,13.3792925 75.3389698,13.0149647 L18.7019747,0.214824727 Z" id="Path-4" fill="url(#linearGradient-4)"></path>
                        <g id="Group-3" transform="translate(34.880558, 36.354567)">
                            <path d="M28.0188092,2.84020054 L28.5062487,5.74554354 C28.5528466,6.02328624 28.3920464,6.35568473 28.1404842,6.4756253 C28.1404842,6.4756253 27.8432295,6.69320436 27.0164992,6.82716059 C26.1897689,6.96111682 26.1128627,6.88656558 26.1128627,6.88656558 C25.5672001,6.85375711 25.0409596,6.38171062 24.9400762,5.84604948 L24.5879346,3.97628075 L28.0188092,2.84020054 Z" id="Path-6" fill="url(#linearGradient-5)"></path>
                            <path d="M29.162434,4.54432086 L28.9846434,3.66123251 C28.7670312,2.58034929 27.6971647,1.79287659 26.5906992,1.90279319 L23.8685185,2.1732154 C23.3184312,2.22786123 22.4360127,2.22879993 21.8749873,2.17306751 L0.997509931,0.0990929223 C0.446600408,0.0443654125 0.0633787144,0.440724175 0.141346928,0.9829011 L0.285906216,1.98814038 C0.443807859,3.08615999 1.45758819,4.05170351 2.56394489,4.14590848 L17.8234773,5.44523961 C19.3487609,5.5751157 21.8141492,5.51762848 23.3227053,5.31781463 L29.162434,4.54432086 Z" id="Path-5" fill="url(#linearGradient-6)"></path>
                        </g>
                    </g>
                </g>
            </g>
        </g>
    </g>
</svg>